<svg xmlns="http://www.w3.org/2000/svg" xml:space="preserve" width="250" height="250" viewBox="0 0 66.146 66.146"><g style="display:inline" transform="translate(-1463.99 -313.296)"><rect width="66.146" height="66.146" x="1463.991" y="313.296" fill="none" ry="0" style="display:inline;fill:#fff;fill-opacity:0;stroke-width:.354462;stroke-linecap:round"/><path d="M1497.064 324.308a22.061 22.061 0 0 0-22.061 22.06 22.061 22.061 0 0 0 22.06 22.062 22.061 22.061 0 0 0 22.062-22.061 22.061 22.061 0 0 0-22.061-22.061zm-2.776 10.297h7.237c.495 0 .996.025 1.503.075.507.05.965.167 1.373.352.409.186.743.464 1.003.835.26.36.39.854.39 1.485 0 .63-.13 1.132-.39 1.503-.26.359-.594.63-1.003.817a4.308 4.308 0 0 1-1.373.352c-.507.05-1.008.074-1.503.074h-4.417v4.825h2.339c.482 0 .977.019 1.484.056.507.037.965.142 1.373.316a2.3 2.3 0 0 1 1.003.816c.272.371.408.89.408 1.559 0 .668-.13 1.187-.39 1.559-.26.37-.594.643-1.002.816a4.299 4.299 0 0 1-1.373.316 20.6 20.6 0 0 1-1.503.056h-2.339v5.9c0 .545-.019 1.07-.055 1.578-.025.507-.13.965-.315 1.373a2.165 2.165 0 0 1-.835.965c-.384.235-.922.353-1.615.353-.705 0-1.25-.118-1.633-.353a2.168 2.168 0 0 1-.835-.965 4.304 4.304 0 0 1-.315-1.373 34.731 34.731 0 0 1-.038-1.577v-17.444c0-.532.013-1.052.038-1.559.038-.507.142-.959.315-1.355a2.15 2.15 0 0 1 .835-.983c.384-.248.928-.371 1.633-.371z" style="fill:#000;fill-opacity:1;stroke-width:.19166;stroke-linecap:round"/></g></svg>