<svg xmlns="http://www.w3.org/2000/svg" xml:space="preserve" width="250" height="250" viewBox="0 0 66.146 66.146"><g style="display:inline" transform="translate(-1370.68 -313.296)"><rect width="66.146" height="66.146" x="1470.329" y="-2.965" fill="none" ry="0" style="display:inline;fill:#fff;fill-opacity:0;stroke-width:.354462;stroke-linecap:round" transform="translate(-99.648 316.26)"/><path d="M1405.834 331.516a3.96 3.96 0 0 0-2.08-7.328 3.96 3.96 0 0 0-2.08 7.328l-5.673 11.347a3.17 3.17 0 0 1-4.813 1.06l-8.823-7.06a3.962 3.962 0 1 0-3.168 1.584h.069l4.525 24.894a6.34 6.34 0 0 0 6.238 5.209h27.45a6.346 6.346 0 0 0 6.238-5.209l4.525-24.894h.069a3.96 3.96 0 0 0 3.96-3.96 3.96 3.96 0 0 0-3.96-3.962 3.96 3.96 0 0 0-3.169 6.338l-8.823 7.06a3.17 3.17 0 0 1-4.812-1.06z" style="stroke-width:.0990216"/></g></svg>