<svg xmlns="http://www.w3.org/2000/svg" xml:space="preserve" width="250" height="250" viewBox="0 0 66.146 66.146"><g style="display:inline" transform="translate(97.627 -703.087)"><rect width="66.146" height="66.146" x="-97.627" y="703.087" fill="none" ry="0" style="display:inline;fill:#fff;fill-opacity:0;stroke-width:.354462;stroke-linecap:round"/><path d="M-89.833 714.632c-1.083 0-2.091.31-2.943.845l24.795 24.795c1.862 1.862 4.784 1.86 6.646 0l24.872-24.872a5.516 5.516 0 0 0-2.813-.765zm55.634 3.335-18.458 18.458 18.288 18.287a5.52 5.52 0 0 0 .62-2.552v-32c0-.78-.16-1.521-.45-2.193zm-60.77.146a5.537 5.537 0 0 0-.39 2.047v32c0 .852.19 1.657.532 2.377l18.14-18.141zm20.7 20.7-18.206 18.207a5.518 5.518 0 0 0 2.642.668h50.557c.89 0 1.728-.209 2.471-.58l-18.267-18.267-3.845 3.845c-3.16 3.16-8.32 3.16-11.479 0z" style="fill:#000;fill-opacity:1;stroke:none;stroke-width:2.4478;stroke-linecap:round;stroke-dasharray:none;stroke-opacity:.5"/></g></svg>