<svg xmlns="http://www.w3.org/2000/svg" xml:space="preserve" width="250" height="250" viewBox="0 0 66.146 66.146"><g style="display:inline" transform="translate(-99.251 -703.876)"><rect width="66.146" height="66.146" x="99.251" y="703.876" fill="none" ry="0" style="display:inline;fill:#fff;fill-opacity:0;stroke-width:.354462;stroke-linecap:round"/><path d="M993.19 461.107a5.696 5.696 0 0 0-5.709 5.709v45.62a5.696 5.696 0 0 0 5.709 5.708h1.111c0-9.274 7.518-16.792 16.792-16.792 9.274 0 16.792 7.518 16.792 16.792h1.112a5.696 5.696 0 0 0 5.708-5.709v-45.62a5.696 5.696 0 0 0-5.708-5.708zm4.196 9.058h27.415a1.945 1.945 0 1 1 0 3.89h-27.415a1.945 1.945 0 1 1 0-3.89zm0 9.999h27.415a1.945 1.945 0 1 1 0 3.89h-27.415a1.945 1.945 0 1 1 0-3.89zm0 9.998h27.415a1.945 1.945 0 1 1 0 3.89h-27.415a1.945 1.945 0 1 1 0-3.89z" style="fill:#000;fill-opacity:1;stroke:none;stroke-width:7.28207;stroke-linecap:round" transform="matrix(.92768 0 0 .92768 -805.645 276.724)"/><path d="M1011.093 505.186a12.957 12.957 0 0 0-12.956 12.958 12.957 12.957 0 0 0 12.956 12.957 12.957 12.957 0 0 0 12.957-12.957 12.957 12.957 0 0 0-12.957-12.958zm.076 4.965c2.238 0 4.252 1.598 4.252 3.788v2.17c.774.08 1.374.73 1.374 1.527v5.817c0 .85-.684 1.535-1.535 1.535h-8.278c-.851 0-1.536-.684-1.536-1.535v-5.817c0-.83.653-1.502 1.475-1.534v-2.163c0-2.19 2.01-3.788 4.248-3.788zm0 2.365c-1.162 0-1.887.727-1.887 1.423v2.161h3.777v-2.161c0-.696-.728-1.423-1.89-1.423zm-.098 6.078a1.181 1.181 0 0 0-1.182 1.18v1.838a1.181 1.181 0 0 0 1.182 1.182 1.181 1.181 0 0 0 1.183-1.182v-1.838a1.181 1.181 0 0 0-1.183-1.18z" style="fill:#000;fill-opacity:1;stroke:none;stroke-width:8.95768;stroke-linecap:round;stroke-opacity:.5" transform="matrix(.92768 0 0 .92768 -805.645 276.724)"/></g></svg>