<svg xmlns="http://www.w3.org/2000/svg" xml:space="preserve" width="250" height="250" viewBox="0 0 66.146 66.146"><g style="display:inline" transform="translate(-997.442 -313.296)"><rect width="66.146" height="66.146" x="1097.09" y="-2.965" fill="none" ry="0" style="display:inline;fill:#fff;fill-opacity:0;stroke-width:.354462;stroke-linecap:round" transform="translate(-99.648 316.26)"/><path d="M1009.89 325.745a5.898 5.898 0 0 0-5.891 5.893V361.1a5.898 5.898 0 0 0 5.892 5.892h41.247a5.898 5.898 0 0 0 5.893-5.892v-29.462a5.898 5.898 0 0 0-5.893-5.893zm15.239 13.01 6.628 13.258a2.213 2.213 0 0 1-.985 2.964 2.216 2.216 0 0 1-2.964-.985l-.498-.994h-8.323l-.497.985a2.197 2.197 0 0 1-2.964.985 2.2 2.2 0 0 1-.986-2.965l6.63-13.258a2.225 2.225 0 0 1 1.979-1.224c.838 0 1.602.47 1.98 1.224zm-1.98 5.929-1.952 3.894h3.895zm16.94 1.685a2.21 2.21 0 1 0 0 4.42 2.21 2.21 0 1 0 0-4.42zm2.21-4.042v-2.587c0-1.225.986-2.21 2.21-2.21 1.225 0 2.21.985 2.21 2.21v13.258c0 1.224-.985 2.21-2.21 2.21-.608 0-1.16-.25-1.565-.645a6.588 6.588 0 0 1-2.854.644 6.625 6.625 0 0 1-6.63-6.629 6.625 6.625 0 0 1 6.63-6.629c.773 0 1.519.13 2.21.378z" style="stroke-width:.0920693"/></g></svg>