<svg xmlns="http://www.w3.org/2000/svg" xml:space="preserve" width="250" height="250" viewBox="0 0 66.146 66.146"><g style="display:inline" transform="translate(-1277.371 -313.296)"><rect width="66.146" height="66.146" x="1377.02" y="-2.965" fill="none" ry="0" style="display:inline;fill:#fff;fill-opacity:0;stroke-width:.354462;stroke-linecap:round" transform="translate(-99.648 316.26)"/><path d="M1310.444 369.469a23.1 23.1 0 1 0 0-46.2 23.1 23.1 0 1 0 0 46.2zm-3.61-15.881H1309v-5.776h-2.165a2.16 2.16 0 0 1-2.166-2.165c0-1.2.965-2.166 2.166-2.166h4.33c1.201 0 2.167.966 2.167 2.166v7.94h.721c1.2 0 2.166.966 2.166 2.166a2.16 2.16 0 0 1-2.166 2.166h-7.218a2.16 2.16 0 0 1-2.166-2.166c0-1.2.965-2.165 2.166-2.165zm3.61-18.77a2.888 2.888 0 1 1 0 5.776 2.888 2.888 0 1 1 0-5.775z" style="stroke-width:.0902347"/></g></svg>