<svg xmlns="http://www.w3.org/2000/svg" xml:space="preserve" width="250" height="250" viewBox="0 0 66.146 66.146"><g style="display:inline" transform="translate(-1184.061 -313.296)"><rect width="66.146" height="66.146" x="1283.71" y="-2.965" fill="none" ry="0" style="display:inline;fill:#fff;fill-opacity:0;stroke-width:.354462;stroke-linecap:round" transform="translate(-99.648 316.26)"/><path d="M1239.725 337.957c.3.819.047 1.732-.603 2.316l-4.077 3.71c.104.78.16 1.58.16 2.39s-.056 1.61-.16 2.392l4.077 3.71c.65.583.904 1.496.603 2.315a23.341 23.341 0 0 1-1.488 3.23l-.442.762a23.938 23.938 0 0 1-2.081 2.937c-.555.678-1.478.904-2.307.64l-5.243-1.666a18.117 18.117 0 0 1-4.143 2.391l-1.177 5.376c-.188.857-.847 1.535-1.713 1.676-1.3.217-2.636.33-4.001.33-1.366 0-2.702-.113-4.002-.33-.866-.141-1.525-.819-1.713-1.676l-1.177-5.375a18.11 18.11 0 0 1-4.142-2.392l-5.235 1.676c-.828.264-1.751.028-2.307-.64a23.949 23.949 0 0 1-2.08-2.938l-.443-.762a23.35 23.35 0 0 1-1.487-3.23c-.301-.818-.047-1.732.602-2.315l4.077-3.71c-.104-.79-.16-1.59-.16-2.4 0-.81.057-1.61.16-2.392l-4.077-3.71c-.65-.583-.903-1.496-.602-2.315.414-1.12.913-2.194 1.487-3.23l.443-.762a23.95 23.95 0 0 1 2.08-2.937c.556-.678 1.479-.904 2.307-.64l5.244 1.666a18.117 18.117 0 0 1 4.142-2.392l1.177-5.375c.189-.857.848-1.535 1.714-1.676 1.299-.226 2.636-.34 4-.34 1.366 0 2.703.114 4.002.33.866.142 1.525.82 1.714 1.676l1.176 5.376a18.112 18.112 0 0 1 4.143 2.391l5.244-1.666c.828-.264 1.751-.028 2.306.64.763.923 1.46 1.902 2.081 2.938l.443.762a23.342 23.342 0 0 1 1.487 3.23zm-22.586 15.948a7.532 7.532 0 1 0 0-15.063 7.532 7.532 0 1 0 0 15.063z" style="stroke-width:.0941471"/></g></svg>