<svg xmlns="http://www.w3.org/2000/svg" xml:space="preserve" width="250" height="250" viewBox="0 0 66.146 66.146"><g style="display:inline" transform="translate(-904.132 -313.296)"><rect width="66.146" height="66.146" x="1003.78" y="-2.965" fill="none" ry="0" style="display:inline;fill:#fff;fill-opacity:0;stroke-width:.354462;stroke-linecap:round" transform="translate(-99.648 316.26)"/><path d="M924.58 327.43c-10.456 0-18.939 8.483-18.939 18.939 0 10.455 8.483 18.938 18.938 18.938h25.25c10.456 0 18.939-8.483 18.939-18.938 0-10.456-8.483-18.938-18.938-18.938zm29.984 10.259a3.945 3.945 0 1 1 0 7.89 3.945 3.945 0 1 1 0-7.89zm-10.258 13.414a3.945 3.945 0 1 1 7.891 0 3.945 3.945 0 1 1-7.89 0zm-22.094-10.258a2.362 2.362 0 0 1 2.367-2.367 2.362 2.362 0 0 1 2.368 2.367v3.157h3.156a2.362 2.362 0 0 1 2.367 2.367 2.362 2.362 0 0 1-2.367 2.367h-3.156v3.156a2.362 2.362 0 0 1-2.368 2.368 2.362 2.362 0 0 1-2.367-2.368v-3.156h-3.156a2.362 2.362 0 0 1-2.368-2.367 2.362 2.362 0 0 1 2.368-2.367h3.156z" style="stroke-width:.0986352"/></g></svg>