<svg xmlns="http://www.w3.org/2000/svg" xml:space="preserve" width="250" height="250" viewBox="0 0 66.146 66.146"><g style="display:inline" transform="translate(-1567.657 -314.445)"><rect width="66.146" height="66.146" x="1567.657" y="314.445" fill="none" ry="0" style="display:inline;fill:#fff;fill-opacity:0;stroke-width:.354462;stroke-linecap:round"/><path d="M1625.857 347.474c0 1.572-1.31 2.803-2.794 2.803h-2.793l.06 13.986c0 .235-.016.471-.043.707v1.405a3.491 3.491 0 0 1-3.492 3.493h-1.397c-.096 0-.192 0-.288-.01-.122.01-.245.01-.367.01h-4.933a3.491 3.491 0 0 1-3.492-3.493v-7.682a2.79 2.79 0 0 0-2.793-2.794h-5.588a2.79 2.79 0 0 0-2.794 2.794v7.682a3.491 3.491 0 0 1-3.492 3.493H1586.771c-.131 0-.262-.01-.393-.018-.105.01-.21.018-.314.018h-1.397a3.491 3.491 0 0 1-3.492-3.493v-9.777c0-.08 0-.166.01-.245v-6.076h-2.802c-1.572 0-2.794-1.222-2.794-2.803 0-.785.262-1.484.873-2.095l22.384-19.512c.612-.611 1.31-.699 1.921-.699s1.31.175 1.834.611l22.297 19.6c.698.611 1.047 1.31.96 2.095z" style="stroke-width:.0873033"/></g></svg>