<svg xmlns="http://www.w3.org/2000/svg" xml:space="preserve" width="977.886" height="177.729" viewBox="0 0 258.732 47.024"><defs><filter id="a" width="1.048" height="1.334" x="-.024" y="-.167" style="color-interpolation-filters:sRGB"><feGaussianBlur stdDeviation="3.579"/></filter></defs><g style="display:inline"><g aria-label="FredGames" style="font-size:68.4756px;font-family:Quicksand;-inkscape-font-specification:Quicksand;text-align:center;text-anchor:middle;fill:#fafafa;stroke-width:107.701;stroke-linecap:round;filter:url(#a)" transform="matrix(.68614 0 0 .68614 -318.678 -438.712)"><path d="M474.412 698.656q-.617 0-1.028-.411-.342-.411-.342-.959v-45.194q0-.548.41-.958.412-.411.96-.411h25.815q.548 0 .959.41.41.411.41.96 0 .616-.41 1.026-.411.343-.96.343h-24.65l.205-.274v19.72l-.274-.547h21.638q.548 0 .96.41.41.412.41.96 0 .616-.41 1.027-.412.342-.96.342H475.37l.411-.548v22.734q0 .548-.41.959-.343.41-.96.41zM511.457 698.656q-.617 0-1.027-.411-.343-.411-.343-.959v-31.43q0-.548.411-.959.411-.41.959-.41.616 0 .958.41.411.411.411.959v11.572l-1.164 1.78q0-2.67.89-5.409.959-2.739 2.74-5.067 1.78-2.397 4.313-3.835 2.602-1.506 5.958-1.506.958 0 2.054.274 1.096.274 1.096 1.3 0 .617-.343 1.028-.342.41-.89.41-.41 0-1.027-.273-.548-.343-1.643-.343-2.192 0-4.314 1.301-2.123 1.301-3.904 3.493-1.711 2.122-2.739 4.656-1.027 2.534-1.027 4.93v17.12q0 .547-.41.958-.411.41-.96.41zM549.187 699.34q-5.136 0-9.107-2.19-3.903-2.192-6.163-6.164-2.26-4.04-2.26-9.45 0-5.751 2.191-9.791 2.26-4.04 5.752-6.163 3.561-2.191 7.533-2.191 2.876 0 5.615.958 2.739.89 4.861 2.876 2.192 1.918 3.493 4.862 1.37 2.876 1.506 6.916 0 .548-.41 1.027-.412.411-.96.411h-27.937l-.411-2.602h27.595l-.684.616v-1.232q-.343-3.63-2.329-6.095-1.917-2.465-4.656-3.697-2.739-1.301-5.683-1.301-2.055 0-4.314.958-2.26.89-4.177 2.808-1.918 1.849-3.15 4.725-1.164 2.876-1.164 6.71 0 4.177 1.643 7.67 1.712 3.492 4.999 5.615 3.355 2.122 8.217 2.122 2.328 0 4.382-.753 2.055-.822 3.698-2.123 1.643-1.3 2.67-2.807.548-.616 1.165-.616.479 0 .821.41.343.343.343.822 0 .48-.274.822-2.123 2.739-5.478 4.793-3.287 2.054-7.327 2.054zM600.133 647.984q.616 0 .958.41.411.411.411.96v47.932q0 .548-.41.959-.411.41-.96.41-.616 0-1.026-.41-.343-.411-.343-.959v-9.723l1.096-1.507q0 2.328-1.096 4.725-1.027 2.328-3.013 4.314-1.917 1.917-4.52 3.081-2.601 1.164-5.614 1.164-4.52 0-8.149-2.328-3.56-2.396-5.683-6.436-2.054-4.109-2.054-9.245 0-5.135 2.054-9.175 2.123-4.109 5.683-6.437 3.63-2.328 8.149-2.328 2.807 0 5.341 1.095 2.602 1.027 4.588 2.945 1.986 1.917 3.15 4.52 1.164 2.533 1.164 5.546l-1.096-1.712v-26.432q0-.548.343-.958.41-.411 1.027-.411zm-14.38 48.754q3.903 0 6.847-1.985 3.013-1.986 4.725-5.479 1.712-3.492 1.712-7.943 0-4.45-1.712-7.874-1.712-3.493-4.725-5.478-3.013-1.986-6.847-1.986-3.766 0-6.78 1.986-3.012 1.985-4.793 5.478-1.711 3.423-1.711 7.874 0 4.383 1.711 7.875 1.78 3.492 4.794 5.547 3.013 1.985 6.779 1.985z" style="font-weight:300;-inkscape-font-specification:&quot;Quicksand Light&quot;;fill:#fff"/><path d="M634.918 699.34q-5.204 0-9.723-1.917-4.52-1.917-7.943-5.273-3.424-3.423-5.41-7.874-1.917-4.451-1.917-9.587 0-5.135 1.917-9.586 1.986-4.451 5.41-7.807 3.423-3.423 7.943-5.34 4.52-1.918 9.723-1.918 3.219 0 6.232.685 3.013.684 5.546 2.054 1.027.548 1.507 1.506.547.89.547 1.85 0 1.643-1.095 2.944-1.096 1.3-2.808 1.3-.547 0-1.164-.136-.548-.137-1.095-.411-1.712-.753-3.63-1.164-1.917-.411-4.04-.411-4.45 0-8.148 2.26-3.63 2.19-5.82 5.957-2.123 3.698-2.123 8.217 0 4.451 2.122 8.217 2.192 3.766 5.82 6.026 3.698 2.191 8.15 2.191 2.054 0 4.519-.41 2.465-.411 4.04-1.096l-.616 2.054v-11.71l1.164 1.028h-7.601q-1.78 0-3.013-1.164-1.164-1.164-1.164-2.945 0-1.78 1.164-2.944 1.232-1.164 3.013-1.164h11.23q1.78 0 2.944 1.232 1.164 1.165 1.164 2.945v14.517q0 1.37-.684 2.26-.617.89-1.438 1.437-3.15 1.918-6.916 3.082-3.698 1.095-7.807 1.095zM690.247 661.336q1.78 0 2.944 1.165 1.164 1.164 1.164 3.012v28.966q0 1.78-1.164 3.013-1.164 1.164-2.944 1.164t-2.945-1.164q-1.164-1.233-1.164-3.013v-3.356l1.507.617q0 .89-.96 2.19-.958 1.233-2.601 2.466-1.644 1.233-3.903 2.123-2.192.821-4.794.821-4.724 0-8.559-2.396-3.835-2.465-6.094-6.71-2.192-4.315-2.192-9.861 0-5.615 2.192-9.86 2.26-4.315 6.025-6.711 3.767-2.466 8.355-2.466 2.944 0 5.41.89 2.464.89 4.245 2.26 1.848 1.37 2.807 2.808 1.027 1.37 1.027 2.328l-2.465.89v-4.999q0-1.78 1.164-2.944 1.164-1.233 2.945-1.233zm-13.832 30.472q3.012 0 5.272-1.506 2.26-1.507 3.492-4.109 1.301-2.602 1.301-5.82 0-3.287-1.3-5.89-1.233-2.601-3.493-4.108-2.26-1.506-5.272-1.506-2.945 0-5.205 1.506-2.26 1.507-3.56 4.109-1.233 2.602-1.233 5.889 0 3.218 1.233 5.82 1.3 2.602 3.56 4.109 2.26 1.506 5.205 1.506zM722.499 661.336q5.478 0 8.08 2.671 2.602 2.602 3.424 6.78l-1.165-.617.548-1.096q.822-1.575 2.534-3.355 1.712-1.849 4.108-3.082 2.466-1.3 5.478-1.3 4.93 0 7.464 2.122 2.602 2.123 3.561 5.684.959 3.492.959 7.806v17.53q0 1.78-1.164 3.013-1.165 1.164-2.945 1.164-1.78 0-2.944-1.164-1.164-1.233-1.164-3.013v-17.53q0-2.26-.548-4.04-.548-1.849-1.986-2.945-1.438-1.095-4.109-1.095-2.602 0-4.45 1.095-1.85 1.096-2.808 2.945-.89 1.78-.89 4.04v17.53q0 1.78-1.164 3.013-1.164 1.164-2.945 1.164-1.78 0-2.944-1.164-1.164-1.233-1.164-3.013v-17.53q0-2.26-.548-4.04-.548-1.849-1.986-2.945-1.438-1.095-4.108-1.095-2.602 0-4.451 1.095-1.85 1.096-2.808 2.945-.89 1.78-.89 4.04v17.53q0 1.78-1.164 3.013-1.164 1.164-2.944 1.164t-2.945-1.164q-1.164-1.233-1.164-3.013v-28.28q0-1.781 1.164-2.945 1.164-1.233 2.945-1.233 1.78 0 2.944 1.233 1.164 1.164 1.164 2.944v2.945l-1.027-.206q.616-1.164 1.712-2.465 1.095-1.37 2.67-2.533 1.575-1.165 3.493-1.85 1.917-.753 4.177-.753zM783.647 699.34q-5.82 0-10.134-2.396-4.245-2.465-6.574-6.642-2.26-4.177-2.26-9.45 0-6.163 2.466-10.477 2.533-4.382 6.573-6.71 4.04-2.329 8.56-2.329 3.492 0 6.574 1.438 3.15 1.438 5.546 3.972 2.397 2.465 3.766 5.752 1.438 3.287 1.438 6.984-.068 1.644-1.3 2.671-1.233 1.027-2.877 1.027h-26.157l-2.055-6.847h25.13l-1.506 1.37v-1.85q-.137-1.986-1.438-3.56-1.232-1.575-3.15-2.466-1.848-.958-3.971-.958-2.054 0-3.835.548-1.78.547-3.081 1.848-1.301 1.301-2.054 3.493-.754 2.19-.754 5.546 0 3.698 1.507 6.3 1.575 2.534 3.971 3.903 2.466 1.301 5.205 1.301 2.533 0 4.04-.41 1.506-.412 2.396-.96.959-.616 1.712-1.027 1.233-.616 2.328-.616 1.507 0 2.465 1.027 1.028 1.027 1.028 2.397 0 1.849-1.918 3.355-1.78 1.507-4.998 2.67-3.219 1.096-6.643 1.096zM804.67 692.972q-.685-.958-.617-2.465.069-1.506 1.78-2.602 1.096-.685 2.329-.548 1.232.069 2.396 1.233 1.986 1.986 4.177 3.081 2.192 1.096 5.478 1.096 1.028-.069 2.26-.274 1.233-.274 2.123-1.096.958-.89.958-2.67 0-1.507-1.027-2.397-1.027-.89-2.739-1.506-1.643-.617-3.697-1.165-2.123-.616-4.383-1.369-2.191-.753-4.04-1.917-1.849-1.233-3.013-3.219-1.164-1.985-1.164-4.998 0-3.424 1.917-5.82 1.918-2.397 4.93-3.699 3.082-1.3 6.437-1.3 2.123 0 4.451.547 2.328.48 4.451 1.644 2.123 1.095 3.561 2.944.753 1.027.89 2.465t-1.3 2.602q-1.028.822-2.398.754-1.369-.137-2.26-.96-1.163-1.506-3.15-2.396-1.916-.89-4.45-.89-1.027 0-2.26.274-1.164.205-2.054 1.027-.89.753-.89 2.465 0 1.575 1.027 2.534 1.027.89 2.739 1.506 1.78.548 3.766 1.096 2.054.548 4.177 1.3 2.123.754 3.903 1.987 1.78 1.232 2.876 3.218 1.096 1.917 1.096 4.93 0 3.493-2.054 5.958-2.055 2.465-5.136 3.766-3.081 1.232-6.3 1.232-4.04 0-8.08-1.37-4.04-1.437-6.71-4.998z" style="font-weight:700;-inkscape-font-specification:&quot;Quicksand Bold&quot;;fill:#f0f"/></g><g aria-label="FredGames" style="font-size:68.4756px;font-family:Quicksand;-inkscape-font-specification:Quicksand;text-align:center;text-anchor:middle;fill:#fafafa;stroke-width:107.701;stroke-linecap:round"><path d="M473.59 699.188q-.616 0-1.027-.411-.342-.411-.342-.959v-45.194q0-.548.41-.958.411-.411.96-.411h25.814q.548 0 .96.41.41.411.41.96 0 .615-.41 1.026-.412.343-.96.343h-24.65l.205-.274v19.72l-.274-.547h21.638q.548 0 .959.41.41.412.41.96 0 .616-.41 1.027-.411.342-.959.342h-21.775l.41-.548v22.734q0 .548-.41.959-.343.41-.959.41zM510.635 699.188q-.616 0-1.027-.411-.342-.411-.342-.959v-31.43q0-.548.41-.959.412-.41.96-.41.616 0 .958.41.41.411.41.959v11.572l-1.163 1.78q0-2.67.89-5.409.959-2.74 2.739-5.067 1.78-2.397 4.314-3.835 2.602-1.506 5.957-1.506.959 0 2.055.274 1.095.273 1.095 1.3 0 .617-.342 1.028-.343.41-.89.41-.411 0-1.028-.273-.547-.343-1.643-.343-2.191 0-4.314 1.301t-3.903 3.493q-1.712 2.122-2.74 4.656-1.026 2.534-1.026 4.93v17.12q0 .547-.411.958-.41.41-.959.41zM548.365 699.872q-5.135 0-9.107-2.19-3.903-2.192-6.163-6.164-2.26-4.04-2.26-9.45 0-5.751 2.192-9.791 2.26-4.04 5.752-6.163 3.56-2.191 7.532-2.191 2.876 0 5.615.958 2.74.89 4.862 2.876 2.191 1.918 3.492 4.862 1.37 2.876 1.507 6.916 0 .548-.411 1.027-.411.411-.959.411H532.48l-.41-2.602h27.595l-.685.616v-1.232q-.342-3.63-2.328-6.095-1.917-2.465-4.656-3.697-2.74-1.301-5.684-1.301-2.054 0-4.314.958-2.26.89-4.177 2.808-1.917 1.849-3.15 4.725-1.164 2.876-1.164 6.71 0 4.177 1.644 7.67 1.712 3.492 4.998 5.615 3.356 2.122 8.217 2.122 2.329 0 4.383-.753 2.054-.822 3.698-2.123 1.643-1.3 2.67-2.807.548-.616 1.164-.616.48 0 .822.41.342.343.342.822 0 .48-.274.822-2.122 2.739-5.478 4.793-3.287 2.054-7.327 2.054zM599.311 648.516q.617 0 .959.41.41.411.41.96v47.932q0 .548-.41.959-.41.41-.959.41-.616 0-1.027-.41-.342-.411-.342-.959v-9.723l1.095-1.507q0 2.328-1.095 4.725-1.027 2.328-3.013 4.314-1.918 1.917-4.52 3.081-2.602 1.164-5.615 1.164-4.519 0-8.148-2.328-3.56-2.396-5.684-6.436-2.054-4.109-2.054-9.245 0-5.135 2.054-9.175 2.123-4.109 5.684-6.437 3.629-2.328 8.148-2.328 2.808 0 5.342 1.095 2.602 1.027 4.587 2.945 1.986 1.917 3.15 4.52 1.164 2.533 1.164 5.546l-1.095-1.712v-26.432q0-.548.342-.958.411-.411 1.027-.411zm-14.38 48.754q3.903 0 6.848-1.985 3.013-1.986 4.725-5.479 1.712-3.492 1.712-7.943 0-4.45-1.712-7.874-1.712-3.493-4.725-5.478-3.013-1.986-6.848-1.986-3.766 0-6.779 1.986-3.013 1.985-4.793 5.478-1.712 3.423-1.712 7.874 0 4.383 1.712 7.875 1.78 3.492 4.793 5.547 3.013 1.985 6.78 1.985z" style="font-weight:300;-inkscape-font-specification:&quot;Quicksand Light&quot;;fill:#fff" transform="matrix(.68614 0 0 .68614 -318.678 -438.712)"/><path d="M634.097 699.872q-5.204 0-9.724-1.917-4.519-1.917-7.943-5.273-3.424-3.423-5.41-7.874-1.917-4.451-1.917-9.587t1.918-9.586q1.985-4.451 5.41-7.807 3.423-3.423 7.942-5.34 4.52-1.918 9.724-1.918 3.218 0 6.231.685 3.013.684 5.547 2.054 1.027.548 1.506 1.506.548.89.548 1.85 0 1.643-1.096 2.944-1.095 1.3-2.807 1.3-.548 0-1.164-.136-.548-.137-1.096-.411-1.712-.753-3.629-1.164-1.917-.411-4.04-.411-4.451 0-8.149 2.26-3.629 2.19-5.82 5.957-2.123 3.698-2.123 8.217 0 4.451 2.123 8.217 2.191 3.766 5.82 6.026 3.698 2.191 8.149 2.191 2.054 0 4.52-.41 2.464-.411 4.04-1.096l-.617 2.054v-11.71l1.164 1.028h-7.6q-1.781 0-3.014-1.164-1.164-1.164-1.164-2.945 0-1.78 1.164-2.944 1.233-1.164 3.013-1.164h11.23q1.78 0 2.945 1.232 1.164 1.164 1.164 2.945v14.517q0 1.37-.685 2.26-.616.89-1.438 1.437-3.15 1.918-6.916 3.082-3.698 1.095-7.806 1.095zM689.425 661.868q1.78 0 2.945 1.164 1.164 1.165 1.164 3.013v28.966q0 1.78-1.164 3.013-1.164 1.164-2.945 1.164-1.78 0-2.944-1.164-1.164-1.233-1.164-3.013v-3.356l1.506.617q0 .89-.959 2.19-.958 1.233-2.602 2.466-1.643 1.232-3.903 2.123-2.191.821-4.793.821-4.725 0-8.56-2.396-3.834-2.465-6.094-6.71-2.191-4.315-2.191-9.861 0-5.615 2.191-9.86 2.26-4.315 6.026-6.711 3.766-2.466 8.354-2.466 2.944 0 5.41.89 2.465.89 4.245 2.26 1.849 1.37 2.808 2.808 1.027 1.37 1.027 2.328l-2.465.89v-4.999q0-1.78 1.164-2.944 1.164-1.233 2.944-1.233zm-13.832 30.472q3.013 0 5.273-1.506 2.26-1.507 3.492-4.109 1.301-2.602 1.301-5.82 0-3.287-1.301-5.89-1.233-2.601-3.492-4.108-2.26-1.506-5.273-1.506-2.944 0-5.204 1.506-2.26 1.507-3.56 4.109-1.233 2.602-1.233 5.889 0 3.218 1.232 5.82 1.301 2.602 3.56 4.109 2.26 1.506 5.205 1.506zM721.677 661.868q5.478 0 8.08 2.671 2.602 2.602 3.424 6.78l-1.164-.617.548-1.096q.821-1.575 2.533-3.355 1.712-1.849 4.109-3.082 2.465-1.3 5.478-1.3 4.93 0 7.464 2.122 2.602 2.123 3.56 5.684.96 3.492.96 7.806v17.53q0 1.78-1.165 3.013-1.164 1.164-2.944 1.164t-2.945-1.164q-1.164-1.233-1.164-3.013v-17.53q0-2.26-.548-4.04-.547-1.849-1.985-2.945-1.438-1.095-4.109-1.095-2.602 0-4.45 1.095-1.85 1.096-2.808 2.945-.89 1.78-.89 4.04v17.53q0 1.78-1.165 3.013-1.164 1.164-2.944 1.164t-2.945-1.164q-1.164-1.233-1.164-3.013v-17.53q0-2.26-.547-4.04-.548-1.849-1.986-2.945-1.438-1.095-4.109-1.095-2.602 0-4.45 1.095-1.85 1.096-2.808 2.945-.89 1.78-.89 4.04v17.53q0 1.78-1.164 3.013-1.165 1.164-2.945 1.164-1.78 0-2.944-1.164-1.164-1.233-1.164-3.013v-28.28q0-1.781 1.164-2.945 1.164-1.233 2.944-1.233t2.945 1.233q1.164 1.164 1.164 2.944v2.945l-1.028-.206q.617-1.164 1.712-2.465 1.096-1.37 2.67-2.534 1.576-1.164 3.493-1.848 1.917-.754 4.177-.754zM782.826 699.872q-5.82 0-10.134-2.396-4.246-2.465-6.574-6.642-2.26-4.177-2.26-9.45 0-6.163 2.465-10.477 2.534-4.382 6.574-6.71 4.04-2.329 8.56-2.329 3.492 0 6.573 1.438 3.15 1.438 5.547 3.972 2.396 2.465 3.766 5.752 1.438 3.287 1.438 6.984-.069 1.644-1.301 2.671-1.233 1.027-2.876 1.027h-26.158l-2.054-6.847h25.13l-1.506 1.37v-1.85q-.137-1.986-1.438-3.56-1.233-1.575-3.15-2.466-1.849-.958-3.972-.958-2.054 0-3.834.548-1.78.547-3.082 1.848-1.3 1.301-2.054 3.493-.753 2.19-.753 5.546 0 3.698 1.506 6.3 1.575 2.534 3.972 3.903 2.465 1.301 5.204 1.301 2.534 0 4.04-.41 1.507-.412 2.397-.96.958-.616 1.712-1.027 1.232-.616 2.328-.616 1.506 0 2.465 1.027 1.027 1.027 1.027 2.397 0 1.849-1.917 3.355-1.78 1.507-4.999 2.67-3.218 1.096-6.642 1.096zM803.848 693.504q-.685-.959-.616-2.465.068-1.506 1.78-2.602 1.096-.685 2.328-.548 1.233.069 2.397 1.233 1.986 1.986 4.177 3.081 2.191 1.096 5.478 1.096 1.027-.069 2.26-.274 1.232-.274 2.122-1.096.959-.89.959-2.67 0-1.507-1.027-2.397-1.027-.89-2.74-1.506-1.643-.617-3.697-1.165-2.123-.616-4.382-1.37-2.191-.752-4.04-1.916-1.85-1.233-3.013-3.219-1.164-1.986-1.164-4.998 0-3.424 1.917-5.82 1.917-2.398 4.93-3.699 3.082-1.3 6.437-1.3 2.123 0 4.45.547 2.329.48 4.452 1.644 2.123 1.095 3.56 2.944.754 1.027.89 2.465.138 1.438-1.3 2.602-1.027.822-2.397.754-1.37-.137-2.26-.96-1.164-1.506-3.15-2.396-1.917-.89-4.45-.89-1.028 0-2.26.274-1.164.205-2.054 1.027-.89.753-.89 2.465 0 1.575 1.026 2.534 1.028.89 2.74 1.506 1.78.548 3.766 1.096 2.054.548 4.177 1.3 2.122.754 3.903 1.987 1.78 1.232 2.876 3.218 1.095 1.917 1.095 4.93 0 3.493-2.054 5.958-2.054 2.465-5.136 3.766-3.081 1.232-6.3 1.232-4.04 0-8.08-1.37-4.04-1.437-6.71-4.998z" style="font-weight:700;-inkscape-font-specification:&quot;Quicksand Bold&quot;;fill:#f0f" transform="matrix(.68614 0 0 .68614 -318.678 -438.712)"/></g></g></svg>