<svg xmlns="http://www.w3.org/2000/svg" xml:space="preserve" width="250" height="250" viewBox="0 0 66.146 66.146"><g style="display:inline" transform="translate(-.812 -703.481)"><rect width="66.146" height="66.146" x=".812" y="703.481" fill="none" ry="0" style="display:inline;fill:#fff;fill-opacity:0;stroke-width:.354462;stroke-linecap:round"/><g style="stroke-width:1.66804"><path d="M771.264 625.475a9.5 9.5 0 0 0-9.522 9.522v76.096a9.5 9.5 0 0 0 9.522 9.522h1.855c0-15.47 12.54-28.01 28.009-28.01 15.47 0 28.01 12.54 28.01 28.01h1.854a9.5 9.5 0 0 0 9.522-9.522v-76.096a9.5 9.5 0 0 0-9.522-9.522zm7 15.109h45.728a3.245 3.245 0 1 1 0 6.49h-45.728a3.245 3.245 0 1 1 0-6.49zm0 16.678h45.728a3.245 3.245 0 1 1 0 6.49h-45.728a3.245 3.245 0 1 1 0-6.49zm0 16.678h45.728a3.245 3.245 0 1 1 0 6.49h-45.728a3.245 3.245 0 1 1 0-6.49z" style="fill:#000;fill-opacity:1;stroke:none;stroke-width:12.1468;stroke-linecap:round" transform="matrix(.5575 0 0 .5575 -412.737 355.313)"/><path d="M801.128 699.002a21.612 21.612 0 0 0-21.612 21.613 21.612 21.612 0 0 0 21.612 21.612 21.612 21.612 0 0 0 21.613-21.612 21.612 21.612 0 0 0-21.613-21.613zm9.205 12.295a2.97 2.97 0 0 1 2.106.876l.013.013a2.97 2.97 0 0 1 0 4.21v.001l-12.66 12.66a2.788 2.788 0 0 1-.345.297 2.96 2.96 0 0 1-1.902.574 2.796 2.796 0 0 1-.426-.051 2.97 2.97 0 0 1-1.537-.82l-5.778-5.778a2.97 2.97 0 0 1 0-4.21l.013-.014a2.971 2.971 0 0 1 4.211 0l3.659 3.658 10.54-10.54a2.968 2.968 0 0 1 2.106-.875z" style="fill:#000;fill-opacity:1;stroke:none;stroke-width:14.9418;stroke-linecap:round;stroke-opacity:.5" transform="matrix(.5575 0 0 .5575 -412.737 355.313)"/></g></g></svg>